<svg width="293" height="58" viewBox="0 0 293 58" fill="none" xmlns="http://www.w3.org/2000/svg">
<path d="M129.572 25.2077C129.474 25.3667 129.371 25.4809 129.263 25.5504C129.156 25.61 129.019 25.6398 128.852 25.6398C128.676 25.6398 128.485 25.5902 128.279 25.4908C128.084 25.3915 127.854 25.2822 127.589 25.163C127.325 25.0339 127.022 24.9197 126.679 24.8203C126.346 24.721 125.95 24.6713 125.49 24.6713C124.775 24.6713 124.212 24.8253 123.801 25.1332C123.39 25.4412 123.184 25.8435 123.184 26.3402C123.184 26.668 123.287 26.9461 123.492 27.1746C123.708 27.3931 123.987 27.5868 124.329 27.7557C124.682 27.9246 125.078 28.0785 125.519 28.2176C125.959 28.3467 126.41 28.4908 126.87 28.6497C127.33 28.8087 127.78 28.9924 128.221 29.201C128.661 29.3997 129.053 29.658 129.395 29.9759C129.748 30.2838 130.027 30.6563 130.232 31.0934C130.448 31.5305 130.555 32.0569 130.555 32.6728C130.555 33.4079 130.423 34.0884 130.159 34.7142C129.895 35.3301 129.508 35.8665 128.999 36.3234C128.49 36.7704 127.858 37.1231 127.105 37.3813C126.361 37.6297 125.504 37.7538 124.535 37.7538C124.016 37.7538 123.507 37.7042 123.008 37.6048C122.518 37.5154 122.044 37.3863 121.584 37.2174C121.133 37.0486 120.712 36.8499 120.321 36.6214C119.939 36.3929 119.601 36.1446 119.308 35.8764L120.145 34.4758C120.252 34.3069 120.38 34.1778 120.526 34.0884C120.673 33.999 120.859 33.9543 121.084 33.9543C121.31 33.9543 121.52 34.0188 121.716 34.148C121.921 34.2771 122.156 34.4162 122.421 34.5652C122.685 34.7142 122.993 34.8532 123.346 34.9824C123.708 35.1115 124.163 35.1761 124.711 35.1761C125.142 35.1761 125.509 35.1264 125.813 35.0271C126.126 34.9178 126.38 34.7787 126.576 34.6099C126.782 34.441 126.929 34.2473 127.017 34.0288C127.115 33.8003 127.163 33.5668 127.163 33.3284C127.163 32.9708 127.056 32.6778 126.84 32.4493C126.635 32.2208 126.356 32.0222 126.003 31.8533C125.661 31.6844 125.264 31.5354 124.814 31.4063C124.374 31.2672 123.918 31.1182 123.448 30.9593C122.988 30.8003 122.533 30.6166 122.083 30.408C121.642 30.1894 121.246 29.9163 120.893 29.5884C120.551 29.2606 120.272 28.8583 120.056 28.3815C119.851 27.9047 119.748 27.3286 119.748 26.6531C119.748 26.0273 119.871 25.4312 120.115 24.865C120.36 24.2988 120.717 23.8071 121.187 23.3899C121.667 22.9627 122.259 22.625 122.964 22.3767C123.679 22.1184 124.501 21.9893 125.431 21.9893C126.468 21.9893 127.413 22.1631 128.265 22.5108C129.116 22.8584 129.826 23.3154 130.394 23.8816L129.572 25.2077Z" fill="white"/>
<path d="M116.751 25.2077C116.653 25.3667 116.551 25.4809 116.443 25.5504C116.335 25.61 116.198 25.6398 116.032 25.6398C115.856 25.6398 115.665 25.5902 115.459 25.4908C115.263 25.3915 115.033 25.2822 114.769 25.163C114.505 25.0339 114.201 24.9197 113.859 24.8203C113.526 24.721 113.129 24.6713 112.669 24.6713C111.955 24.6713 111.392 24.8253 110.981 25.1332C110.569 25.4412 110.364 25.8435 110.364 26.3402C110.364 26.668 110.467 26.9461 110.672 27.1746C110.888 27.3931 111.167 27.5868 111.509 27.7557C111.862 27.9246 112.258 28.0785 112.699 28.2176C113.139 28.3467 113.589 28.4908 114.049 28.6497C114.51 28.8087 114.96 28.9924 115.4 29.201C115.841 29.3997 116.232 29.658 116.575 29.9759C116.927 30.2838 117.206 30.6563 117.412 31.0934C117.627 31.5305 117.735 32.0569 117.735 32.6728C117.735 33.4079 117.603 34.0884 117.339 34.7142C117.074 35.3301 116.688 35.8665 116.179 36.3234C115.67 36.7704 115.038 37.1231 114.284 37.3813C113.54 37.6297 112.684 37.7538 111.715 37.7538C111.196 37.7538 110.687 37.7042 110.188 37.6048C109.698 37.5154 109.223 37.3863 108.763 37.2174C108.313 37.0486 107.892 36.8499 107.5 36.6214C107.119 36.3929 106.781 36.1446 106.487 35.8764L107.324 34.4758C107.432 34.3069 107.559 34.1778 107.706 34.0884C107.853 33.999 108.039 33.9543 108.264 33.9543C108.489 33.9543 108.7 34.0188 108.895 34.148C109.101 34.2771 109.336 34.4162 109.6 34.5652C109.865 34.7142 110.173 34.8532 110.525 34.9824C110.888 35.1115 111.343 35.1761 111.891 35.1761C112.322 35.1761 112.689 35.1264 112.992 35.0271C113.305 34.9178 113.56 34.7787 113.756 34.6099C113.961 34.441 114.108 34.2473 114.196 34.0288C114.294 33.8003 114.343 33.5668 114.343 33.3284C114.343 32.9708 114.235 32.6778 114.02 32.4493C113.815 32.2208 113.536 32.0222 113.183 31.8533C112.841 31.6844 112.444 31.5354 111.994 31.4063C111.553 31.2672 111.098 31.1182 110.628 30.9593C110.168 30.8003 109.713 30.6166 109.263 30.408C108.822 30.1894 108.426 29.9163 108.073 29.5884C107.731 29.2606 107.452 28.8583 107.236 28.3815C107.031 27.9047 106.928 27.3286 106.928 26.6531C106.928 26.0273 107.05 25.4312 107.295 24.865C107.54 24.2988 107.897 23.8071 108.367 23.3899C108.847 22.9627 109.439 22.625 110.144 22.3767C110.858 22.1184 111.68 21.9893 112.61 21.9893C113.648 21.9893 114.593 22.1631 115.444 22.5108C116.296 22.8584 117.006 23.3154 117.574 23.8816L116.751 25.2077Z" fill="white"/>
<path d="M104.243 37.5157H102.613C102.271 37.5157 102.001 37.466 101.806 37.3667C101.61 37.2574 101.463 37.0439 101.365 36.726L101.042 35.6383C100.66 35.9859 100.283 36.2939 99.9114 36.5621C99.5492 36.8204 99.1723 37.0389 98.7808 37.2177C98.3892 37.3965 97.9731 37.5306 97.5326 37.62C97.0921 37.7094 96.6027 37.7541 96.0643 37.7541C95.428 37.7541 94.8406 37.6697 94.3022 37.5008C93.7638 37.322 93.2988 37.0588 92.9072 36.7111C92.5255 36.3634 92.2269 35.9313 92.0115 35.4148C91.7962 34.8982 91.6885 34.2972 91.6885 33.6118C91.6885 33.0357 91.8353 32.4694 92.129 31.9132C92.4325 31.347 92.9317 30.8403 93.6267 30.3933C94.3218 29.9364 95.2469 29.5589 96.402 29.2609C97.5571 28.9629 98.9912 28.794 100.704 28.7543V27.8603C100.704 26.8371 100.489 26.0822 100.058 25.5954C99.6373 25.0987 99.0206 24.8504 98.2081 24.8504C97.6207 24.8504 97.1313 24.9199 96.7397 25.059C96.3481 25.1981 96.0055 25.357 95.7118 25.5358C95.428 25.7047 95.1636 25.8587 94.9189 25.9977C94.6742 26.1368 94.405 26.2063 94.1113 26.2063C93.8666 26.2063 93.6561 26.1418 93.4799 26.0126C93.3037 25.8835 93.1618 25.7246 93.0541 25.5358L92.3933 24.3587C94.126 22.7494 96.216 21.9448 98.6633 21.9448C99.5443 21.9448 100.327 22.0938 101.013 22.3918C101.708 22.6799 102.295 23.0872 102.775 23.6137C103.254 24.1302 103.617 24.7511 103.861 25.4762C104.116 26.2014 104.243 26.996 104.243 27.8603V37.5157ZM97.1949 35.2211C97.5669 35.2211 97.9095 35.1863 98.2228 35.1167C98.536 35.0472 98.8297 34.9429 99.1038 34.8038C99.3877 34.6648 99.6569 34.4959 99.9114 34.2972C100.176 34.0886 100.44 33.8453 100.704 33.5671V30.9893C99.6471 31.039 98.7612 31.1334 98.0466 31.2725C97.3417 31.4016 96.774 31.5705 96.3432 31.7791C95.9125 31.9877 95.6042 32.231 95.4182 32.5092C95.242 32.7873 95.1539 33.0903 95.1539 33.4181C95.1539 34.0638 95.3399 34.5257 95.7118 34.8038C96.0936 35.082 96.588 35.2211 97.1949 35.2211Z" fill="white"/>
<path d="M75.7461 37.5155V15.3735H79.373V23.8816C79.9603 23.3154 80.6064 22.8585 81.3113 22.5108C82.0161 22.1631 82.8433 21.9893 83.7928 21.9893C84.6151 21.9893 85.3444 22.1333 85.9807 22.4214C86.617 22.6995 87.1456 23.0969 87.5666 23.6134C87.9973 24.12 88.3203 24.731 88.5357 25.4462C88.7608 26.1515 88.8734 26.9313 88.8734 27.7855V37.5155H85.2465V27.7855C85.2465 26.8518 85.0312 26.1316 84.6004 25.625C84.1795 25.1084 83.5432 24.8502 82.6915 24.8502C82.065 24.8502 81.4777 24.9942 80.9295 25.2823C80.3813 25.5704 79.8625 25.9627 79.373 26.4594V37.5155H75.7461Z" fill="white"/>
<path d="M65.6529 22.1831C66.7395 22.1831 67.7184 22.3669 68.5896 22.7344C69.4706 23.102 70.2146 23.6235 70.8216 24.299C71.4383 24.9744 71.9082 25.794 72.2312 26.7575C72.564 27.7111 72.7305 28.779 72.7305 29.9611C72.7305 31.1531 72.564 32.226 72.2312 33.1796C71.9082 34.1332 71.4383 34.9478 70.8216 35.6232C70.2146 36.2987 69.4706 36.8202 68.5896 37.1878C67.7184 37.5454 66.7395 37.7242 65.6529 37.7242C64.5663 37.7242 63.5824 37.5454 62.7014 37.1878C61.8302 36.8202 61.0862 36.2987 60.4695 35.6232C59.8528 34.9478 59.378 34.1332 59.0451 33.1796C58.7123 32.226 58.5459 31.1531 58.5459 29.9611C58.5459 28.779 58.7123 27.7111 59.0451 26.7575C59.378 25.794 59.8528 24.9744 60.4695 24.299C61.0862 23.6235 61.8302 23.102 62.7014 22.7344C63.5824 22.3669 64.5663 22.1831 65.6529 22.1831ZM65.6529 35.653C67.1212 35.653 68.2176 35.1564 68.942 34.163C69.6664 33.1597 70.0286 31.764 70.0286 29.976C70.0286 28.178 69.6664 26.7774 68.942 25.7741C68.2176 24.7708 67.1212 24.2692 65.6529 24.2692C64.9089 24.2692 64.2628 24.3983 63.7146 24.6566C63.1664 24.9148 62.7063 25.2873 62.3343 25.7741C61.9721 26.2608 61.698 26.8618 61.512 27.577C61.3358 28.2823 61.2477 29.082 61.2477 29.976C61.2477 30.87 61.3358 31.6697 61.512 32.375C61.698 33.0802 61.9721 33.6763 62.3343 34.163C62.7063 34.6398 63.1664 35.0074 63.7146 35.2656C64.2628 35.5239 64.9089 35.653 65.6529 35.653Z" fill="white"/>
<path d="M43.4287 42.6264V22.4215H44.9852C45.3572 22.4215 45.5921 22.6053 45.69 22.9728L45.9103 24.7609C46.5466 23.9761 47.271 23.3453 48.0835 22.8685C48.9058 22.3917 49.8504 22.1533 50.9175 22.1533C51.7691 22.1533 52.5425 22.3222 53.2375 22.6599C53.9325 22.9877 54.5248 23.4795 55.0142 24.1351C55.5037 24.7808 55.8806 25.5854 56.1449 26.5489C56.4092 27.5125 56.5413 28.6201 56.5413 29.8717C56.5413 30.9843 56.3945 32.0223 56.1008 32.9859C55.8072 33.9395 55.3862 34.769 54.838 35.4742C54.2898 36.1696 53.6144 36.7209 52.8117 37.1282C52.0187 37.5255 51.123 37.7242 50.1245 37.7242C49.2043 37.7242 48.4163 37.5702 47.7604 37.2623C47.1143 36.9544 46.5417 36.5173 46.0424 35.9511V42.6264H43.4287ZM50.0511 24.299C49.1994 24.299 48.4506 24.4976 47.8045 24.895C47.1682 25.2923 46.5808 25.8536 46.0424 26.5787V33.8799C46.5221 34.5355 47.0458 34.9974 47.6136 35.2656C48.1912 35.5338 48.8324 35.668 49.5372 35.668C50.9175 35.668 51.9796 35.1663 52.7236 34.163C53.4675 33.1597 53.8395 31.7293 53.8395 29.8717C53.8395 28.8883 53.7514 28.0439 53.5752 27.3386C53.4088 26.6334 53.1641 26.0572 52.841 25.6102C52.518 25.1533 52.1215 24.8205 51.6516 24.6119C51.1818 24.4033 50.6483 24.299 50.0511 24.299Z" fill="white"/>
<path d="M31.584 37.5156V22.4215H33.0817C33.3656 22.4215 33.5614 22.4762 33.6691 22.5854C33.7768 22.6947 33.8502 22.8834 33.8893 23.1516L34.0655 25.5059C34.5746 24.4529 35.2011 23.6334 35.9451 23.0473C36.6988 22.4513 37.5799 22.1533 38.5882 22.1533C38.9993 22.1533 39.3713 22.203 39.7041 22.3023C40.037 22.3917 40.3453 22.5209 40.6292 22.6897L40.2915 24.6715C40.223 24.9198 40.0712 25.044 39.8363 25.044C39.6992 25.044 39.4888 24.9993 39.2049 24.9099C38.921 24.8106 38.5245 24.7609 38.0155 24.7609C37.1051 24.7609 36.3415 25.0291 35.7248 25.5655C35.1179 26.1019 34.6088 26.8817 34.1977 27.9049V37.5156H31.584Z" fill="white"/>
<path d="M21.2866 22.1831C22.3732 22.1831 23.3522 22.3669 24.2234 22.7344C25.1044 23.102 25.8484 23.6235 26.4553 24.299C27.0721 24.9744 27.5419 25.794 27.865 26.7575C28.1978 27.7111 28.3642 28.779 28.3642 29.9611C28.3642 31.1531 28.1978 32.226 27.865 33.1796C27.5419 34.1332 27.0721 34.9478 26.4553 35.6232C25.8484 36.2987 25.1044 36.8202 24.2234 37.1878C23.3522 37.5454 22.3732 37.7242 21.2866 37.7242C20.2 37.7242 19.2162 37.5454 18.3352 37.1878C17.464 36.8202 16.72 36.2987 16.1033 35.6232C15.4865 34.9478 15.0118 34.1332 14.6789 33.1796C14.3461 32.226 14.1797 31.1531 14.1797 29.9611C14.1797 28.779 14.3461 27.7111 14.6789 26.7575C15.0118 25.794 15.4865 24.9744 16.1033 24.299C16.72 23.6235 17.464 23.102 18.3352 22.7344C19.2162 22.3669 20.2 22.1831 21.2866 22.1831ZM21.2866 35.653C22.755 35.653 23.8514 35.1564 24.5758 34.163C25.3002 33.1597 25.6624 31.764 25.6624 29.976C25.6624 28.178 25.3002 26.7774 24.5758 25.7741C23.8514 24.7708 22.755 24.2692 21.2866 24.2692C20.5427 24.2692 19.8966 24.3983 19.3484 24.6566C18.8002 24.9148 18.3401 25.2873 17.9681 25.7741C17.6059 26.2608 17.3318 26.8618 17.1458 27.577C16.9696 28.2823 16.8815 29.082 16.8815 29.976C16.8815 30.87 16.9696 31.6697 17.1458 32.375C17.3318 33.0802 17.6059 33.6763 17.9681 34.163C18.3401 34.6398 18.8002 35.0074 19.3484 35.2656C19.8966 35.5239 20.5427 35.653 21.2866 35.653Z" fill="white"/>
<path d="M11.7037 25.1036C11.6254 25.2128 11.5471 25.2973 11.4688 25.3569C11.3905 25.4165 11.2779 25.4463 11.1311 25.4463C10.9842 25.4463 10.8227 25.3867 10.6465 25.2675C10.4801 25.1383 10.2647 24.9993 10.0004 24.8503C9.73611 24.7013 9.41307 24.5672 9.03129 24.448C8.6593 24.3188 8.19921 24.2543 7.65101 24.2543C6.92661 24.2543 6.28542 24.3884 5.72743 24.6566C5.16945 24.9148 4.69957 25.2923 4.31779 25.789C3.9458 26.2857 3.66191 26.8867 3.46613 27.5919C3.28013 28.2972 3.18714 29.0869 3.18714 29.9611C3.18714 30.875 3.28992 31.6895 3.4955 32.4048C3.70107 33.11 3.98985 33.7061 4.36184 34.1928C4.73383 34.6696 5.18413 35.0372 5.71275 35.2954C6.25116 35.5438 6.85319 35.6679 7.51886 35.6679C8.15516 35.6679 8.67888 35.5934 9.09002 35.4444C9.50117 35.2855 9.84379 35.1117 10.1179 34.9229C10.392 34.7342 10.6171 34.5653 10.7933 34.4163C10.9696 34.2574 11.1458 34.1779 11.322 34.1779C11.5471 34.1779 11.7135 34.2623 11.8212 34.4312L12.5554 35.3997C11.9093 36.2044 11.1017 36.7954 10.1326 37.1729C9.16344 37.5404 8.14047 37.7242 7.06366 37.7242C6.13369 37.7242 5.26734 37.5504 4.46463 37.2027C3.6717 36.855 2.98156 36.3534 2.39421 35.6977C1.80686 35.0322 1.34187 34.2176 0.999249 33.2541C0.666416 32.2905 0.5 31.1929 0.5 29.9611C0.5 28.8386 0.651733 27.8005 0.955198 26.8469C1.26845 25.8933 1.71876 25.0738 2.30611 24.3884C2.90325 23.693 3.63744 23.1516 4.50868 22.7642C5.37992 22.3768 6.37842 22.1831 7.50417 22.1831C8.54183 22.1831 9.46201 22.3569 10.2647 22.7046C11.0674 23.0424 11.7772 23.5241 12.3939 24.15L11.7037 25.1036Z" fill="white"/>
<line x1="148.1" y1="0.508789" x2="148.1" y2="57.4912" stroke="white" stroke-width="3"/>
<g clip-path="url(#clip0_148_2684)">
<path d="M195.902 9.12898C195.961 9.78527 195.787 10.4742 196.438 11.0058C196.67 11.1958 196.685 11.6799 196.755 12.0363C196.956 13.04 197.168 14.0437 197.306 15.0564C197.362 15.4692 197.226 15.9057 197.212 16.3333C197.206 16.556 197.241 16.7936 197.318 17.0015C197.415 17.2658 197.653 17.4974 197.692 17.7617C197.824 18.7179 197.889 19.686 197.998 20.6452C198.024 20.8769 198.113 21.1026 198.195 21.3253C198.693 22.6883 199.287 24.0217 199.67 25.4145C199.938 26.3826 199.903 27.4309 200.035 28.4405C200.162 29.3968 200.335 30.347 200.474 31.3033C200.536 31.7368 200.562 32.1763 200.591 32.6129C200.618 33.0227 200.615 33.4325 200.65 33.8423C200.706 34.5075 200.924 35.1935 200.824 35.829C200.591 37.299 200.238 38.7303 200.321 40.2508C200.397 41.6346 199.623 42.8195 199.122 44.0638C198.922 44.5597 198.905 45.1388 198.666 45.608C198.251 46.4247 197.733 47.1879 197.256 47.9718C197.209 48.052 197.132 48.1322 197.123 48.2183C196.9 50.1367 195.519 51.3038 194.33 52.5926C193.903 53.0559 193.523 53.5845 193.028 53.9527C192.178 54.5852 191.294 55.2029 190.349 55.6721C188.836 56.4205 187.37 57.3054 185.689 57.6618C185.642 57.6707 185.592 57.7093 185.551 57.7004C184.117 57.3589 182.76 58.4042 181.244 57.8192C180.393 57.4895 179.321 57.7924 178.361 57.6826C177.564 57.5905 176.748 57.4034 176.012 57.0857C174.599 56.4799 173.236 55.7523 171.852 55.0752C171.746 55.0247 171.625 54.9921 171.537 54.9178C170.407 54.0002 169.27 53.0915 168.163 52.1472C167.937 51.9512 167.831 51.6096 167.669 51.3364C167.595 51.2117 167.554 51.0603 167.457 50.9623C166.459 49.9496 166.173 48.5658 165.576 47.3452C165.234 46.6474 164.695 46.0475 164.345 45.3526C163.715 44.0935 163.291 42.7631 163.25 41.3288C163.244 41.0942 163.214 40.821 163.091 40.6339C162.502 39.7311 162.576 38.7986 162.855 37.8276C162.911 37.6375 162.835 37.4059 162.811 37.195C162.679 35.9507 162.52 34.7065 163.07 33.5097C163.15 33.3404 163.253 33.1474 163.241 32.9752C163.135 31.2528 163.965 29.7858 164.489 28.2386C164.96 26.8399 165.367 25.4115 165.952 24.0633C166.335 23.1843 167.006 22.4359 167.513 21.6074C167.792 21.1501 167.972 20.6304 168.252 20.1701C168.581 19.6266 168.973 19.1248 169.326 18.5962C169.482 18.3646 169.65 18.1299 169.741 17.8716C169.989 17.1767 170.056 16.366 170.46 15.7899C171.231 14.6852 171.693 13.4765 172.094 12.2174C172.179 11.9501 172.306 11.668 172.491 11.4631C172.853 11.0622 172.924 10.593 173.056 10.0911C173.233 9.43485 173.754 8.87656 174.096 8.25887C174.272 7.93518 174.384 7.57289 174.519 7.22544C174.64 6.91066 174.675 6.53054 174.876 6.28406C175.656 5.30705 176.492 4.37756 177.296 3.42133C177.511 3.16891 177.643 2.81256 177.899 2.63438C178.8 2.01076 179.707 1.37822 180.675 0.873384C181.391 0.49921 182.206 0.318062 182.978 0.0507945C183.045 0.0270374 183.134 -0.00859821 183.187 0.0151589C184.508 0.609086 185.892 0.0864302 187.24 0.246791C188.377 0.380424 189.487 0.481392 190.364 1.33071C190.426 1.3901 190.535 1.44059 190.617 1.43762C192.116 1.36931 192.849 2.47699 193.599 3.47776C194.238 4.32707 194.865 5.21796 195.295 6.18013C195.699 7.08587 195.837 8.11039 196.093 9.08146C196.031 9.09928 195.966 9.1171 195.905 9.13492L195.902 9.12898ZM182.81 31.2736C182.63 30.745 182.509 30.4272 182.415 30.1035C182.168 29.2453 182.024 28.3425 181.665 27.5378C181.397 26.932 180.849 26.4568 180.443 25.9104C179.798 25.0433 179.083 24.7908 178.046 25.0492C177.849 25.0997 177.619 25.0076 177.405 25.0106C177.134 25.0106 176.845 24.9868 176.592 25.07C175.494 25.4293 174.952 26.4271 174.366 27.2824C173.854 28.0278 173.448 28.9454 173.318 29.8363C173.077 31.4844 173.059 33.1652 172.971 34.8371C172.953 35.1994 173.015 35.5736 173.074 35.9359C173.227 36.8624 173.354 37.8008 173.577 38.7095C173.822 39.7014 173.937 40.8328 174.505 41.6079C175.556 43.0482 176.365 44.6607 177.758 45.8872C178.774 46.778 179.883 47.4343 181.023 48.0936C181.135 48.1589 181.344 48.1381 181.47 48.0758C182.277 47.6778 183.095 47.2948 183.873 46.8374C186.363 45.3734 188.018 43.066 189.337 40.625C190.14 39.1401 190.873 37.4831 190.994 35.6746C191.1 34.0977 191.471 32.5327 191.474 30.9588C191.474 30.16 190.968 29.3344 190.597 28.5653C189.881 27.0804 187.9 26.436 186.396 27.1576C184.865 27.8911 184.079 29.3077 183.26 30.6915C183.166 30.8519 183.031 30.9914 182.807 31.2736H182.81Z" fill="white"/>
<path d="M256.275 39.2704C257.202 38.4003 257.879 37.6757 258.65 37.0759C259.171 36.669 259.819 36.185 260.517 36.7106C260.823 36.9422 261.123 37.3669 261.165 37.7351C261.279 38.7092 261.232 39.704 261.285 40.687C261.329 41.4858 261.491 42.2817 261.477 43.0745C261.453 44.2297 261.385 45.3968 261.179 46.5282C261.12 46.8549 260.555 47.232 260.164 47.3211C259.507 47.4696 258.718 47.4666 258.444 46.653C258.285 46.1808 258.371 45.6136 258.394 45.0909C258.43 44.3188 258.541 43.5497 258.553 42.7776C258.559 42.2609 258.444 41.7441 258.362 41.0552C257.808 41.5838 257.42 41.955 257.031 42.3262C256.59 42.7479 256.148 42.733 255.718 42.3084C255.565 42.1569 255.444 41.9728 255.277 41.8421C255.082 41.6848 254.856 41.5689 254.644 41.4353C254.514 41.7055 254.27 41.9758 254.273 42.246C254.279 43.2557 254.408 44.2654 254.402 45.275C254.399 45.869 254.42 46.6767 254.072 47.0004C253.699 47.3508 252.886 47.3805 252.309 47.2885C252.023 47.2439 251.658 46.6203 251.629 46.2372C251.529 44.9365 251.555 43.6269 251.549 42.3203C251.544 41.0225 251.555 39.7278 251.567 38.43C251.567 38.2132 251.576 37.9786 251.647 37.7797C252.097 36.5354 253.519 36.2325 254.482 37.2065C255.094 37.8272 255.627 38.531 256.275 39.2853V39.2704Z" fill="white"/>
<path d="M239.005 43.0716C239.161 41.3789 239.623 39.906 240.651 38.5904C241.136 37.9698 241.448 37.2125 241.864 36.5355C242.8 35.0002 244.746 34.6557 245.979 35.8376C246.385 36.2266 246.592 36.8591 246.815 37.4115C247.136 38.2074 247.466 39.0181 247.66 39.8525C248.046 41.5244 248.355 43.229 247.587 44.8801C247.322 45.4503 246.954 45.9819 246.577 46.4927C245.505 47.9389 243.974 47.7755 242.482 47.5677C241.251 47.3954 240.174 46.8371 239.67 45.6315C239.335 44.8297 239.22 43.9328 239.005 43.0805V43.0716ZM245.399 42.5015C245.284 41.9699 245.223 41.4146 245.04 40.9038C244.819 40.2742 243.715 39.8228 243.291 40.105C242.541 40.6039 242.205 41.4057 241.875 42.1778C241.601 42.8162 241.993 43.7903 242.417 44.1466C243.082 44.7049 243.807 44.5921 244.484 44.3218C245.252 44.013 245.255 43.2112 245.396 42.5015H245.399Z" fill="white"/>
<path d="M237.051 17.9277C236.753 18.9284 236.612 20.0153 236.114 20.9032C235.596 21.8298 234.872 22.6019 233.609 22.8305C232.37 23.0562 231.251 22.8692 230.188 22.4356C228.802 21.8743 228.066 20.6746 228.048 19.169C228.033 18.0851 228.098 16.9685 228.351 15.9232C228.528 15.1926 229.072 14.5482 229.467 13.8711C229.953 13.0396 230.418 12.1933 230.954 11.3974C231.587 10.4531 232.423 10.2422 233.571 10.5214C234.466 10.7382 234.94 11.142 235.193 11.9646C235.275 12.2349 235.446 12.4754 235.54 12.7427C236.135 14.4087 236.93 16.0271 236.862 17.8653C236.927 17.8861 236.989 17.9039 237.054 17.9247L237.051 17.9277ZM232.505 19.8134C233.603 19.7956 234.472 18.6166 234.168 17.5624C234.071 17.2209 234.033 16.8527 233.898 16.529C233.668 15.9826 233.438 15.4124 232.744 15.2906C232.122 15.1837 231.684 15.4569 231.395 15.9826C231.192 16.3538 231.065 16.7725 230.859 17.1437C230.1 18.5157 231.269 20.0599 232.502 19.8134H232.505Z" fill="white"/>
<path d="M222.001 47.6744C219.575 47.5853 218.365 46.4865 217.988 44.0158C217.894 43.3981 217.717 42.7745 217.738 42.1598C217.779 40.8561 218.203 39.6326 218.712 38.4418C218.974 37.83 219.263 37.2213 219.443 36.5828C219.925 34.8634 222.74 34.7178 223.564 36.0661C224.388 37.4202 225.254 38.7536 226.008 40.1463C226.317 40.7195 226.405 41.4263 226.552 42.0796C226.832 43.315 226.641 44.4939 226.034 45.5956C225.257 47.0121 223.976 47.5675 222.442 47.6714C222.295 47.6803 222.148 47.6714 222.001 47.6714V47.6744ZM220.261 42.3379C220.402 42.7834 220.547 43.116 220.611 43.4634C220.756 44.2148 221.4 44.5444 221.942 44.6097C222.537 44.684 223.164 44.4078 223.623 43.802C224.291 42.9141 223.449 40.7284 222.663 40.2265C222.027 39.8197 221.456 39.8761 221.035 40.5413C220.685 41.0937 220.502 41.7559 220.261 42.335V42.3379Z" fill="white"/>
<path d="M281.887 17.7883C281.99 19.4899 281.746 20.9747 280.409 22.0052C279.947 22.3616 279.34 22.5635 278.772 22.7446C278.272 22.902 277.73 22.9288 277.209 23.0178C276.505 23.1366 274.689 22.1804 274.227 21.5954C273.558 20.749 273.158 19.7097 273.161 18.7624C273.164 17.4498 273.093 16.054 273.791 14.786C274.236 13.9783 274.518 13.0755 274.804 12.1905C274.989 11.6144 276.034 10.4088 276.585 10.3761C277.624 10.3137 278.654 10.3642 279.282 11.4095C279.891 12.4281 280.492 13.4556 281.077 14.492C281.672 15.5462 282.043 16.6628 281.887 17.7853V17.7883ZM279.373 18.0823C279.208 17.4913 279.105 16.8677 278.861 16.3124C278.49 15.472 277.191 14.9761 276.711 15.475C275.943 16.2768 275.784 17.3844 275.763 18.3971C275.743 19.3206 276.729 19.876 277.748 19.7869C278.831 19.6918 279.19 19.2939 279.373 18.0823Z" fill="white"/>
<path d="M271.201 41.6108C271.681 42.0681 272.081 42.4779 272.511 42.8551C273.377 43.6123 273.279 44.6042 272.95 45.4773C272.617 46.3563 271.94 47.0304 270.865 47.0868C269.505 47.1581 268.148 47.3125 266.788 47.3541C265.799 47.3838 265.113 46.671 265.107 45.6643C265.089 43.1491 265.092 40.6367 265.107 38.1215C265.113 37.1266 265.802 36.5089 266.882 36.4288C268.401 36.3189 269.864 36.6159 271.307 37.0375C272.323 37.3345 272.914 38.9203 272.54 39.9626C272.296 40.6457 272.019 41.2455 271.21 41.6078L271.201 41.6108ZM267.73 44.2241C267.751 45.302 267.789 45.3496 268.619 45.3288C269.588 45.305 270.1 44.8685 270.138 44.1617C270.179 43.4312 269.24 42.861 268.484 42.9234C267.653 42.9917 267.718 43.6361 267.727 44.227L267.73 44.2241ZM267.721 39.8438C267.724 40.3576 267.58 40.9872 268.336 41.0822C268.846 41.1446 269.791 40.2834 269.814 39.832C269.847 39.241 269.293 38.8253 268.531 38.751C267.609 38.6619 267.715 39.2707 267.721 39.8438Z" fill="white"/>
<path d="M261.871 16.9479C261.871 15.8877 261.838 14.8246 261.879 13.7644C261.921 12.6597 262.412 11.7778 263.805 11.7659C265.665 11.7481 267.441 11.8461 268.892 13.1675C270.488 14.6197 271.044 16.3748 270.458 18.5248C270.178 19.5552 269.863 20.4966 268.939 21.0905C268.235 21.5419 267.532 22.1626 266.758 22.2992C265.553 22.51 264.27 22.5041 263.051 22.3497C261.971 22.2101 261.953 21.1084 261.879 20.2798C261.782 19.1781 261.856 18.0615 261.856 16.9509C261.862 16.9509 261.868 16.9509 261.871 16.9509V16.9479ZM264.535 17.1172C264.535 17.1172 264.529 17.1172 264.526 17.1172C264.526 17.3399 264.526 17.5596 264.526 17.7824C264.526 18.0288 264.505 18.2753 264.52 18.5218C264.573 19.386 264.741 19.5641 265.571 19.5107C265.886 19.4899 266.189 19.3236 266.501 19.2315C267.29 18.994 267.97 18.1417 268.006 17.3429C268.074 15.8551 267.273 14.9137 265.774 14.7207C264.815 14.5959 264.608 14.7504 264.541 15.7185C264.508 16.1847 264.535 16.6539 264.535 17.1231V17.1172Z" fill="white"/>
<path d="M291.423 44.6008C291.285 45.3818 291.182 46.0292 291.055 46.6706C290.926 47.324 290.431 47.3447 289.895 47.3774C289.315 47.413 288.9 47.2319 288.665 46.6944C288.547 46.4271 288.4 46.145 288.382 45.8659C288.338 45.1116 287.917 44.9156 287.26 44.9809C287.066 45.0017 286.869 44.9958 286.672 44.9958C285.756 45.0017 285.529 45.1947 285.382 46.0856C285.203 47.1666 284.113 47.8347 283.204 47.2735C282.812 47.03 282.538 46.344 282.488 45.8332C282.359 44.5147 282.612 43.2466 283.201 42.0172C283.742 40.8828 284.066 39.6445 284.525 38.4685C285.147 36.8797 286.206 36.3214 287.266 36.4165C288.238 36.5026 289.248 37.4618 289.524 38.3853C289.904 39.6415 290.443 40.8501 290.837 42.1004C291.105 42.9437 291.244 43.8317 291.417 44.6008H291.423ZM286.916 42.917C287.873 42.9051 288.111 42.7062 288.097 41.94C288.076 40.9897 287.581 40.2533 286.951 40.2443C286.424 40.2354 285.677 41.257 285.688 41.9697C285.697 42.5131 286.233 42.9289 286.913 42.92L286.916 42.917Z" fill="white"/>
<path d="M215.053 20.4165C215.053 20.5887 215.041 20.761 215.053 20.9332C215.168 22.5249 213.878 22.8575 212.73 22.4447C212.58 22.3913 212.474 22.13 212.406 21.9429C212.3 21.6518 212.277 21.3311 212.165 21.046C211.765 20.0275 211.756 20.0393 210.628 20.2561C210.481 20.2858 210.313 20.1997 210.154 20.1759C209.604 20.0868 209.28 20.3274 209.159 20.8708C209.097 21.15 209.044 21.4321 208.941 21.6964C208.626 22.5041 208.152 22.6853 206.966 22.4863C206.23 22.3616 206.309 21.7558 206.245 21.2391C206.039 19.5345 206.533 17.9725 207.193 16.4312C207.599 15.4869 207.905 14.498 208.294 13.5447C209.156 11.4333 211.567 11.1809 212.768 12.6984C213.125 13.1468 213.304 13.7496 213.513 14.302C213.937 15.4186 214.388 16.5292 214.706 17.6785C214.947 18.5575 215 19.4929 215.135 20.4016L215.053 20.4135V20.4165ZM210.69 18.2694C211.411 18.2694 211.909 17.8834 211.871 17.2954C211.812 16.3896 211.264 15.478 210.643 15.4008C210.187 15.3443 209.454 16.5352 209.459 17.2687C209.465 17.8566 209.972 18.2694 210.69 18.2694Z" fill="white"/>
<path d="M258.947 20.033C258.305 20.7071 259.021 21.8147 258.073 22.5067C257.39 23.0056 256.93 22.2691 256.348 22.4027C256.289 22.4176 256.021 21.8712 255.985 21.5683C255.853 20.3507 254.366 19.4984 253.409 20.2141C253.03 20.4962 252.894 21.1495 252.718 21.6574C252.382 22.6255 250.987 23.0947 250.398 22.3463C250.027 21.8741 249.738 21.2832 249.947 20.5734C250.077 20.1369 249.971 19.6321 250.08 19.1866C250.268 18.4264 250.533 17.6869 250.783 16.9445C251.028 16.217 251.275 15.4924 251.549 14.7767C251.934 13.77 252.276 12.7366 253.18 12.0298C253.989 11.3973 255.841 11.7922 256.536 12.8346C256.872 13.3394 257.116 13.9274 257.298 14.5124C257.781 16.0715 258.202 17.6483 258.656 19.2163C258.729 19.4687 258.832 19.7152 258.947 20.033ZM255.65 17.2326C255.547 16.9059 255.503 16.5199 255.311 16.2289C255.099 15.9081 254.74 15.4478 254.472 15.4657C254.163 15.4864 253.769 15.9081 253.61 16.2496C252.915 17.7226 252.941 17.7345 254.502 18.1532C255.073 18.3076 255.67 17.8384 255.65 17.2296V17.2326Z" fill="white"/>
<path d="M225.692 13.9453C225.833 15.4123 225.197 16.6774 224.688 17.9811C224.388 18.7472 224.105 19.5283 223.896 20.3241C223.699 21.0725 222.68 22.3375 222.065 22.4623C220.981 22.682 219.969 22.5187 219.318 21.5684C218.879 20.9299 218.62 20.1578 218.332 19.4243C217.958 18.474 217.622 17.5089 217.299 16.5378C216.83 15.1273 216.607 13.6692 217.157 12.2586C217.296 11.9082 218.011 11.6112 218.47 11.6023C219.103 11.5874 219.613 12.0002 219.745 12.7278C220.036 14.3433 220.322 15.9617 220.669 17.5653C220.731 17.8534 221.096 18.0761 221.32 18.3315C221.503 18.0791 221.785 17.8534 221.85 17.5742C222.171 16.2349 222.433 14.8837 222.721 13.5355C222.816 13.0901 222.813 12.5496 223.075 12.2348C223.36 11.8874 223.884 11.6023 224.329 11.5578C225.091 11.4805 225.589 12.0537 225.645 12.8406C225.671 13.2089 225.68 13.5801 225.695 13.9483L225.692 13.9453Z" fill="white"/>
<path d="M288.364 22.7713C287.725 22.5901 286.969 22.3793 286.215 22.1536C285.944 22.0734 285.615 22.0318 285.432 21.8537C285.076 21.5003 284.67 21.1053 284.528 20.648C284.334 20.0244 284.549 19.282 285.164 19.0503C285.556 18.9018 286.145 19.2048 286.619 19.38C287.372 19.6561 288.035 20.2738 288.909 20.0778C289.224 20.0066 289.498 19.7482 289.792 19.573C289.592 19.3443 289.427 19.0503 289.183 18.8959C288.082 18.201 286.951 17.5536 285.844 16.8736C284.832 16.25 284.455 15.2225 284.781 14.0435C285.323 12.0895 287.428 11.0798 289.356 11.6619C290.251 11.9321 291.132 12.1073 291.938 12.6478C292.398 12.9537 292.568 13.313 292.412 13.7198C292.239 14.1712 292.13 14.8631 291.417 14.7681C290.864 14.6939 290.334 14.4504 289.789 14.2959C289.286 14.1534 288.779 13.9574 288.267 13.9307C288.002 13.9158 287.575 14.1653 287.49 14.3939C287.408 14.6137 287.596 15.1037 287.808 15.2314C288.644 15.7243 289.586 16.0421 290.396 16.5677C291.597 17.3458 292.624 18.2426 292.492 19.959C292.43 20.7846 291.07 22.2546 290.431 22.4149C289.801 22.5753 289.147 22.6406 288.367 22.7713H288.364Z" fill="white"/>
<path d="M239.385 17.3844C239.423 15.377 239.935 13.6219 241.566 12.3479C242.944 11.2729 244.431 11.2789 245.962 11.95C246.571 12.2173 247.233 12.4608 247.448 13.1883C247.522 13.4378 247.54 13.7941 247.416 13.9991C246.874 14.8899 246.306 14.9998 245.332 14.6167C243.718 13.9812 242.196 15.0265 242.155 16.7163C242.14 17.3369 242.285 17.9754 242.432 18.5871C242.632 19.4068 244.125 20.0482 244.849 19.6711C245.267 19.4543 245.679 19.2226 246.109 19.0356C246.3 18.9524 246.659 18.8722 246.724 18.9554C247.083 19.4365 247.466 19.9324 247.672 20.4877C247.899 21.0995 247.478 21.5865 246.968 21.83C246.241 22.1804 245.476 22.5249 244.69 22.6704C242.676 23.0475 240.053 21.4944 239.767 19.2731C239.685 18.6347 239.514 18.0081 239.385 17.3785V17.3844Z" fill="white"/>
<path d="M212.029 47.3863C209.476 47.4873 207.678 45.6996 207.404 43.1635C207.251 41.7292 207.204 40.2859 207.951 38.9229C208.673 37.6043 209.526 36.5917 211.128 36.3838C212.585 36.1938 213.898 36.4016 215.014 37.3994C215.479 37.8152 215.541 38.3438 215.144 38.8753C214.628 39.5673 213.966 39.8078 213.424 39.597C211.284 38.7655 210.215 39.5702 210.045 41.7084C210.006 42.2043 210.033 42.7537 210.204 43.214C210.775 44.7671 212.229 44.678 213.754 44.0069C214.74 43.5733 215.194 43.7634 215.364 44.7909C215.573 46.0441 215.453 46.3084 214.278 46.8043C213.569 47.1042 212.821 47.318 212.091 47.5675C212.07 47.5081 212.047 47.4457 212.026 47.3863H212.029Z" fill="white"/>
<path d="M232.719 40.2447C232.719 41.1802 232.71 42.1186 232.719 43.054C232.728 43.8796 232.966 44.1082 233.808 44.1112C234.689 44.1112 235.569 44.0963 236.452 44.0874C237.185 44.0815 237.385 44.3012 237.427 45.0318C237.524 46.7393 236.67 47.2738 235.169 47.3421C234.144 47.3897 233.114 47.3511 232.086 47.3362C230.667 47.3154 229.961 46.4097 229.707 45.0021C229.475 43.7103 229.79 42.4927 229.755 41.2395C229.728 40.2625 229.707 39.2826 229.769 38.3115C229.805 37.771 229.855 37.0761 230.187 36.7465C230.549 36.3872 231.256 36.2179 231.795 36.2506C232.348 36.2832 232.825 36.6218 232.734 37.4325C232.628 38.359 232.71 39.3033 232.71 40.2417C232.71 40.2417 232.713 40.2417 232.716 40.2417L232.719 40.2447Z" fill="white"/>
<path d="M279.461 42.1064C279.461 43.4368 279.429 44.7701 279.473 46.1005C279.503 46.9469 278.599 47.3894 277.845 47.3597C276.962 47.324 276.297 46.7568 276.294 45.9728C276.279 43.508 276.267 41.0432 276.297 38.5784C276.302 38.0795 276.414 37.5361 276.638 37.0936C276.977 36.4225 277.718 36.6838 278.278 36.6363C279.064 36.571 279.497 37.2896 279.505 38.4834C279.514 39.6921 279.505 40.8977 279.505 42.1064C279.491 42.1064 279.476 42.1064 279.464 42.1064H279.461Z" fill="white"/>
<path d="M262.257 28.9007C262.05 29.0818 261.788 29.2244 261.65 29.4471C261.3 30.0054 261.011 30.0678 260.631 29.4738C260.511 29.2838 260.252 29.1798 260.057 29.0343C259.969 29.263 259.819 29.4916 259.807 29.7233C259.775 30.5102 259.787 31.3002 259.798 32.0871C259.807 32.6484 259.53 32.8652 258.992 32.88C258.441 32.8978 258.076 32.6721 258.07 32.1198C258.047 30.4716 258.023 28.8205 258.088 27.1724C258.129 26.1478 258.897 25.7885 259.716 26.3527C260.063 26.5933 260.396 26.8902 260.646 27.2288C260.958 27.6475 261.22 27.6445 261.582 27.3268C262.042 26.9288 262.498 26.519 263.001 26.1835C263.496 25.8509 264.144 26.1686 264.158 26.7626C264.2 28.58 264.197 30.4004 264.185 32.2207C264.182 32.7018 263.858 32.8444 263.402 32.8681C262.828 32.9008 262.507 32.6573 262.489 32.1079C262.457 31.1012 262.48 30.0915 262.48 29.0848C262.407 29.0224 262.333 28.9601 262.26 28.9007H262.257Z" fill="white"/>
<path d="M249.456 29.7677C249.453 28.5264 249.6 27.3623 250.669 26.5783C252.485 25.2449 254.761 26.4803 255.014 28.464C255.141 29.444 255.244 30.4299 254.817 31.4188C254.381 32.4315 253.528 33.067 252.468 33.1679C250.878 33.3194 249.232 31.9237 249.456 29.7707V29.7677ZM251.208 29.6964C251.208 29.8122 251.217 30.0112 251.208 30.2072C251.178 30.8249 251.593 31.107 252.082 31.1694C252.391 31.208 252.8 31.0654 253.048 30.8605C253.589 30.4032 253.654 29.1025 253.139 28.4789C252.924 28.2205 252.471 28.0453 252.123 28.0423C251.514 28.0364 251.134 28.4106 251.211 29.6994L251.208 29.6964Z" fill="white"/>
<path d="M245.729 30.0292C246.065 30.6618 246.35 31.2616 246.698 31.8259C247.013 32.3396 246.695 32.6841 246.342 32.791C245.938 32.9157 245.403 33.1355 245.07 32.5207C244.734 31.9031 244.343 31.3121 243.963 30.6885C243.298 31.1042 243.206 31.6091 243.374 32.1109C243.507 32.5029 243.374 32.7791 243.086 32.8177C242.691 32.8712 242.211 32.8385 241.881 32.6484C241.672 32.5267 241.596 32.0486 241.587 31.7279C241.552 30.5697 241.537 29.4115 241.575 28.2534C241.637 26.3884 242.406 25.6787 244.26 26.2192C244.699 26.3469 245.208 26.2756 245.614 26.4597C246.916 27.0418 247.163 28.586 246.171 29.6283C246.038 29.7679 245.888 29.8896 245.729 30.0322V30.0292ZM243.165 28.5088C243.374 28.7434 243.683 29.2126 243.772 29.174C244.21 28.978 244.902 29.1413 245.035 28.4434C245.105 28.0811 244.487 27.5793 244.016 27.5407C243.383 27.4902 243.295 27.8851 243.168 28.5058L243.165 28.5088Z" fill="white"/>
<path d="M236.217 30.7804C236.217 31.315 236.199 31.805 236.22 32.292C236.258 33.1413 235.49 32.88 235.107 33.0255C234.83 33.1294 234.43 32.8354 234.427 32.3009C234.418 31.4724 234.236 30.6438 234.244 29.8183C234.253 28.8442 234.345 27.8672 234.495 26.9051C234.53 26.6794 234.939 26.3646 235.192 26.3497C236.355 26.2814 237.521 26.2963 238.687 26.2963C239.155 26.2963 239.485 26.4685 239.467 27.0298C239.449 27.5881 239.167 27.7989 238.637 27.79C237.86 27.7752 237.082 27.787 236.255 27.787C236.232 28.2265 236.214 28.5621 236.187 29.0491C236.72 29.1204 237.23 29.2422 237.739 29.2392C238.189 29.2362 238.501 29.3966 238.501 29.8123C238.501 30.2043 238.281 30.525 237.777 30.5518C237.28 30.5755 236.788 30.6973 236.217 30.7864V30.7804Z" fill="white"/>
</g>
<defs>
<clipPath id="clip0_148_2684">
<rect width="129.857" height="58" fill="white" transform="translate(162.644)"/>
</clipPath>
</defs>
</svg>
