<svg version="1.1" id="Layer_1" xmlns="http://www.w3.org/2000/svg" xmlns:xlink="http://www.w3.org/1999/xlink" x="0px" y="0px"
	 width="100%" viewBox="0 0 558 326" enable-background="new 0 0 558 326" xml:space="preserve">
<path fill="#154728" opacity="1.000000" stroke="none" 
	d="
M321.000000,327.000000 
	C214.030090,327.000000 107.560188,327.000000 1.045143,327.000000 
	C1.045143,218.394150 1.045143,109.788284 1.045143,1.091205 
	C186.886597,1.091205 372.773254,1.091205 558.829956,1.091205 
	C558.829956,109.666458 558.829956,218.333206 558.829956,327.000000 
	C479.788239,327.000000 400.644135,327.000000 321.000000,327.000000 
M109.002487,170.825928 
	C109.505875,173.134705 109.969902,175.454666 110.613998,177.723495 
	C110.651199,177.854523 112.152672,177.569824 113.817902,177.361404 
	C115.217674,177.497498 116.617447,177.633575 118.257774,178.363327 
	C121.252388,180.260696 126.840118,179.377655 128.895355,176.259628 
	C128.895355,176.259628 129.220261,175.989365 129.942825,175.702576 
	C130.296082,174.666245 130.955765,173.630524 130.957901,172.593475 
	C131.015121,144.706894 131.032120,116.820045 130.920654,88.933784 
	C130.915405,87.620712 129.666107,86.312630 128.536987,84.853348 
	C128.202377,84.729424 128.004593,84.491684 127.773857,83.347214 
	C122.842064,83.237808 117.910278,83.128403 112.205238,83.058182 
	C111.147865,85.019646 109.264114,86.945564 109.177933,88.948822 
	C108.827652,97.090355 108.867493,105.260086 109.093323,113.410286 
	C109.209908,117.617592 107.361664,119.084053 103.467247,119.051918 
	C95.644188,118.987350 87.813622,118.844955 79.999367,119.115921 
	C76.024567,119.253746 74.765587,117.927467 74.883720,113.984802 
	C75.137863,105.502960 74.936600,97.008133 74.976982,88.518875 
	C74.991989,85.363136 74.096619,82.595779 70.654999,82.252739 
	C66.535042,81.842094 62.341450,82.009987 58.192719,82.204254 
	C57.494736,82.236938 56.862347,83.670395 55.893894,84.858376 
	C55.392689,85.502022 54.891487,86.145668 53.726231,87.386185 
	C53.486828,88.495140 53.040092,89.603767 53.038391,90.713089 
	C52.997387,117.454887 52.984421,144.196823 53.059998,170.938446 
	C53.063751,172.265381 53.912640,173.589935 54.838310,175.445206 
	C55.535831,176.069733 56.218178,177.213760 56.933327,177.234665 
	C61.655518,177.372589 66.389969,177.375229 71.106766,177.143631 
	C71.929115,177.103256 72.686737,175.744324 74.144257,174.647491 
	C74.431709,172.922546 74.953804,171.199524 74.968063,169.472321 
	C75.052429,159.248459 75.018929,149.023651 75.792084,138.510849 
	C86.210213,138.610443 96.628349,138.710037 107.356232,139.333344 
	C107.904343,139.558762 108.452454,139.784164 108.995850,140.945679 
	C109.001381,150.629089 109.006912,160.312515 109.002487,170.825928 
M266.838104,146.124985 
	C266.838104,146.124985 266.793030,146.251862 266.887177,145.492249 
	C265.683777,140.115326 261.477203,137.812820 256.903839,136.165222 
	C251.762787,134.313110 246.475266,132.870056 241.264374,131.208527 
	C237.353729,129.961594 234.666214,127.514992 233.995041,122.802162 
	C234.638702,122.473434 235.282349,122.144714 236.373581,122.337387 
	C242.087479,123.484741 247.951202,124.159828 253.473389,125.911552 
	C259.054901,127.682091 261.779663,127.290985 265.044617,122.334808 
	C267.722260,118.270164 265.684692,111.646980 261.797241,109.250877 
	C253.416962,104.085587 244.080139,104.785591 234.999207,104.624908 
	C232.410736,104.579109 229.767838,107.610085 227.141846,109.134544 
	C227.141846,109.134544 227.227203,109.178352 226.469833,109.105019 
	C225.320084,110.084595 224.170334,111.064171 222.852631,112.518005 
	C222.569626,112.680801 222.286621,112.843590 221.408875,112.753090 
	C218.359497,113.358337 216.761414,116.067497 217.132950,120.593163 
	C216.947678,121.105537 216.762405,121.617912 215.873428,122.449905 
	C212.228622,129.404953 215.498611,135.561584 218.254349,141.711426 
	C218.443893,142.134415 220.156418,141.874969 221.620560,141.996414 
	C221.940857,142.142090 222.097687,142.390823 222.127411,143.475967 
	C222.803970,144.335464 223.305222,145.629135 224.185349,145.984558 
	C230.246323,148.432159 236.353088,150.779968 242.527527,152.922318 
	C243.864136,153.386078 245.535629,152.884674 247.794449,152.865204 
	C250.672745,154.052612 253.124069,156.159927 251.863541,159.235214 
	C250.942657,161.481842 248.414093,164.128983 246.211136,164.549622 
	C242.643936,165.230759 238.658676,164.651077 235.032272,163.813934 
	C231.855484,163.080582 228.940674,161.234818 225.890289,159.926712 
	C220.067612,157.429718 218.461166,162.546997 215.878113,165.647018 
	C213.100815,168.980179 216.060196,170.788437 218.228149,172.452942 
	C225.443893,177.992950 233.788635,179.249130 242.677505,179.149628 
	C258.860291,178.968460 272.716583,168.097000 267.854004,147.755081 
	C267.470612,147.208542 267.087219,146.662003 266.838104,146.124985 
M203.226913,173.610275 
	C203.474899,173.025085 203.937073,172.440720 203.939362,171.854568 
	C203.989731,158.981979 204.027573,146.108902 203.928238,133.236969 
	C203.919907,132.158661 202.923050,131.087967 202.124039,129.219299 
	C201.218414,119.233337 196.592728,111.677223 186.880493,108.480247 
	C174.989410,104.566071 163.305786,105.746231 152.188721,111.753807 
	C148.404266,113.798889 147.347382,116.384705 149.651733,120.268616 
	C151.729675,123.770882 153.537689,126.666656 158.602325,124.479355 
	C162.641800,122.734795 167.108307,121.474380 171.477875,121.110306 
	C179.125183,120.473137 182.925644,124.156799 183.432678,132.529816 
	C182.037811,133.350586 180.682266,134.787186 179.240891,134.879166 
	C174.499969,135.181732 169.721497,134.860535 164.972015,135.086105 
	C163.625412,135.150055 162.328629,136.262695 160.358536,137.261307 
	C150.744293,139.710800 143.719055,144.907700 142.285049,155.355820 
	C141.178864,163.415421 142.860748,170.900970 150.294022,175.387360 
	C162.037964,182.475510 173.154236,179.764526 184.086578,171.497391 
	C184.782349,178.024307 189.199509,177.772003 193.708389,177.438507 
	C195.193939,177.328629 196.882889,177.865601 198.142441,177.324203 
	C199.796219,176.613327 201.117249,175.128387 203.226913,173.610275 
M245.314102,310.664551 
	C248.977371,311.053192 252.634216,311.679352 256.305298,311.778656 
	C262.960083,311.958649 262.970459,311.827606 262.977478,305.232513 
	C262.985382,297.818634 262.979279,290.404724 262.979279,282.212341 
	C265.086670,283.246918 266.236298,283.757996 267.336517,284.359406 
	C285.548279,294.314026 304.305054,286.483429 309.515381,266.488312 
	C312.031677,256.831757 312.006561,246.956589 309.286011,237.333435 
	C303.585602,217.169617 282.592224,210.125732 265.782715,222.535965 
	C264.771484,223.282532 263.662567,223.896713 263.236816,224.167236 
	C261.661957,221.981247 260.317047,218.648514 259.110718,218.697952 
	C254.307785,218.894730 248.786728,215.916412 244.045166,221.282806 
	C243.699265,222.155624 243.052780,223.027863 243.051056,223.901367 
	C242.996613,251.417404 242.981842,278.933655 243.081970,306.449432 
	C243.086304,307.634430 244.238235,308.815247 245.314102,310.664551 
M168.654587,310.547729 
	C172.673126,310.974365 176.692551,311.393005 180.709976,311.829987 
	C184.585587,312.251526 186.125656,310.541382 186.048615,306.650421 
	C185.891190,298.699646 186.001450,290.743500 186.001450,282.206268 
	C188.575089,283.482208 190.557205,284.462402 192.537186,285.446930 
	C206.888412,292.582825 222.669601,287.603851 229.816193,273.206543 
	C235.727539,261.297760 235.576233,248.666962 232.011490,236.179962 
	C226.525024,216.961395 203.482452,209.872330 188.799179,222.819702 
	C188.018768,223.507843 187.025543,223.954605 186.839005,224.071243 
	C185.070831,221.961044 183.664703,218.864304 182.260742,218.865280 
	C177.464203,218.868637 172.004562,216.004501 167.193207,221.228790 
	C166.801102,222.882629 166.039307,224.546387 166.083420,226.188507 
	C166.241104,232.059006 166.635376,237.924637 167.032852,243.785843 
	C167.106430,244.870743 167.610275,245.926453 168.101349,247.917252 
	C168.042374,255.278793 167.983398,262.640320 167.408936,270.650421 
	C167.581787,276.763336 167.754639,282.876221 168.115128,289.780151 
	C168.054550,290.856842 167.993973,291.933533 167.413895,293.652557 
	C167.650818,299.106964 167.887756,304.561401 168.654587,310.547729 
M104.259224,268.232574 
	C104.857948,268.075317 105.456673,267.918091 106.944138,267.461670 
	C113.274666,267.565857 119.605202,267.670013 126.418831,268.354431 
	C128.282913,268.236145 130.147003,268.117859 132.700424,268.249512 
	C133.442764,270.275085 134.239853,272.282471 134.918579,274.329132 
	C139.322845,287.609894 139.314514,287.471710 153.135132,287.482117 
	C157.717926,287.485565 158.840164,285.828064 157.393127,281.763428 
	C157.003464,280.668854 156.788940,279.512299 156.406036,278.414856 
	C148.187119,254.859192 140.077881,231.264221 131.680298,207.772339 
	C126.740219,193.952591 129.905807,195.326599 114.075691,195.280930 
	C112.909073,195.277557 111.727623,195.400192 110.578415,195.258575 
	C106.000305,194.694458 103.629524,196.771576 102.154022,201.089554 
	C94.141769,224.537079 85.913643,247.910797 77.779556,271.316772 
	C76.578377,274.773163 75.425140,278.248566 74.352829,281.746765 
	C73.249756,285.345367 73.995842,287.645599 78.432167,287.441101 
	C81.758476,287.287781 85.103935,287.271362 88.428520,287.438934 
	C91.603195,287.598969 93.387939,286.327484 94.228630,283.250000 
	C95.323662,279.241425 96.882172,275.351807 97.840622,271.315887 
	C98.692909,267.727020 100.545837,266.618683 104.259224,268.232574 
M480.935760,70.572418 
	C477.285431,62.797985 474.676758,54.286304 469.792328,47.385349 
	C454.248383,25.424179 423.476593,23.446285 404.392609,42.459206 
	C395.960968,50.859505 390.535858,61.070663 386.263702,72.019951 
	C376.900330,96.017853 367.608551,120.044708 358.066498,143.971588 
	C348.500458,167.958588 344.411926,192.756897 348.146942,218.331345 
	C351.889648,243.958786 361.711578,266.656921 383.698975,282.374359 
	C426.069550,312.662445 485.144836,297.932739 507.975647,251.162872 
	C524.455383,217.403534 524.896484,183.056641 509.420044,148.945343 
	C497.994751,123.763100 486.604126,98.663124 480.935760,70.572418 
M294.761444,128.531464 
	C294.221985,123.413277 295.985596,120.501389 301.232391,120.753517 
	C306.388550,121.001289 311.688080,122.499527 316.504181,124.474480 
	C322.007446,126.731209 323.112152,122.540329 325.342987,119.728752 
	C327.802460,116.629028 326.546112,114.305229 323.782837,112.158920 
	C314.664886,105.076859 297.040100,104.255562 287.275757,110.537704 
	C273.893799,119.147316 274.616302,138.431152 288.681396,145.771210 
	C291.460297,147.221436 294.540283,148.119553 297.525604,149.143463 
	C301.614166,150.545746 305.889557,151.510925 309.788757,153.306534 
	C311.419525,154.057510 313.287415,156.484406 313.247040,158.104462 
	C313.199432,160.016144 311.488586,163.184433 309.995026,163.512192 
	C305.944489,164.401077 301.531616,164.687714 297.445496,164.046432 
	C293.941742,163.496552 290.709381,161.289627 287.324280,159.895035 
	C281.652130,157.558258 280.367065,162.800781 277.765381,165.601898 
	C275.039703,168.536469 277.465698,170.401764 279.517670,172.145020 
	C289.762360,180.848480 310.539124,181.786804 321.408203,173.991989 
	C328.652283,168.796906 330.902191,161.452576 330.032623,152.918259 
	C329.271698,145.450745 324.685150,140.825378 318.117706,138.194824 
	C313.034332,136.158722 307.622528,134.956726 302.466278,133.082550 
	C299.881470,132.143051 297.541107,130.531006 294.761444,128.531464 
z"/>
<path fill="#FCFCFA" opacity="1.000000" stroke="none" 
	d="
M481.025482,70.964859 
	C486.604126,98.663124 497.994751,123.763100 509.420044,148.945343 
	C524.896484,183.056641 524.455383,217.403534 507.975647,251.162872 
	C485.144836,297.932739 426.069550,312.662445 383.698975,282.374359 
	C361.711578,266.656921 351.889648,243.958786 348.146942,218.331345 
	C344.411926,192.756897 348.500458,167.958588 358.066498,143.971588 
	C367.608551,120.044708 376.900330,96.017853 386.263702,72.019951 
	C390.535858,61.070663 395.960968,50.859505 404.392609,42.459206 
	C423.476593,23.446285 454.248383,25.424179 469.792328,47.385349 
	C474.676758,54.286304 477.285431,62.797985 481.025482,70.964859 
M426.012207,160.981079 
	C426.012207,160.981079 426.356506,160.650223 426.071381,160.050446 
	C409.812958,145.500748 393.632538,153.006943 388.612335,172.489853 
	C385.139740,185.966492 387.771851,199.531754 395.115448,212.510712 
	C402.661377,225.375809 411.474518,237.179276 423.386749,246.407959 
	C429.705170,251.302994 436.581787,252.534744 443.277161,247.915390 
	C462.832611,234.423492 477.344971,217.115982 481.588623,193.000656 
	C483.673035,181.155502 483.698090,169.452728 474.500824,159.712326 
	C466.563721,151.306503 455.836670,149.951767 446.817444,157.183197 
	C443.104340,160.160233 440.252625,164.192551 436.818848,167.550323 
	C435.944763,168.405060 434.343933,168.516602 432.917328,168.301651 
	C430.726807,165.747528 428.536316,163.193405 426.012207,160.981079 
z"/>
<path fill="#F9FAF8" opacity="1.000000" stroke="none" 
	d="
M127.943634,84.140137 
	C128.004593,84.491684 128.202377,84.729424 128.839859,85.369598 
	C129.318024,102.811806 129.601471,119.737572 129.633774,136.663803 
	C129.658798,149.772018 129.369720,162.880829 129.220261,175.989365 
	C129.220261,175.989365 128.895355,176.259628 128.459106,176.613922 
	C124.687645,177.235367 121.352432,177.502518 118.017220,177.769669 
	C116.617447,177.633575 115.217674,177.497498 113.088531,177.193390 
	C111.584366,174.683243 110.809563,172.341141 110.146179,169.541916 
	C110.163704,159.388672 110.069817,149.692551 109.935043,139.612640 
	C108.944939,139.089111 107.995705,138.949371 107.046478,138.809631 
	C96.628349,138.710037 86.210213,138.610443 74.949310,138.774475 
	C73.895782,151.023529 73.685020,163.008972 73.474258,174.994400 
	C72.686737,175.744324 71.929115,177.103256 71.106766,177.143631 
	C66.389969,177.375229 61.655518,177.372589 56.933327,177.234665 
	C56.218178,177.213760 55.535831,176.069733 54.646790,174.718842 
	C54.433609,144.924759 54.411945,115.857033 54.390282,86.789307 
	C54.891487,86.145668 55.392689,85.502022 56.496246,84.598366 
	C60.926868,84.286911 64.760773,84.346039 68.581764,84.151573 
	C72.098625,83.972565 73.240814,85.580170 73.197220,88.928192 
	C73.114845,95.254433 73.330841,101.584129 73.384567,107.912720 
	C73.420815,112.181656 73.391479,116.451164 73.391479,120.726662 
	C86.123009,120.726662 98.009598,120.726662 110.289688,120.726662 
	C110.289688,110.399811 110.131805,100.429260 110.413216,90.471138 
	C110.474869,88.289116 112.101143,86.151321 113.469482,84.045303 
	C118.602608,84.111679 123.273117,84.125908 127.943634,84.140137 
z"/>
<path fill="#F9FBF8" opacity="1.000000" stroke="none" 
	d="
M125.935730,267.774200 
	C119.605202,267.670013 113.274666,267.565857 106.154037,267.479492 
	C104.888268,267.583649 104.412598,267.669952 103.936920,267.756226 
	C100.545837,266.618683 98.692909,267.727020 97.840622,271.315887 
	C96.882172,275.351807 95.323662,279.241425 94.228630,283.250000 
	C93.387939,286.327484 91.603195,287.598969 88.428520,287.438934 
	C85.103935,287.271362 81.758476,287.287781 78.432167,287.441101 
	C73.995842,287.645599 73.249756,285.345367 74.352829,281.746765 
	C75.425140,278.248566 76.578377,274.773163 77.779556,271.316772 
	C85.913643,247.910797 94.141769,224.537079 102.154022,201.089554 
	C103.629524,196.771576 106.000305,194.694458 110.578415,195.258575 
	C111.727623,195.400192 112.909073,195.277557 114.075691,195.280930 
	C129.905807,195.326599 126.740219,193.952591 131.680298,207.772339 
	C140.077881,231.264221 148.187119,254.859192 156.406036,278.414856 
	C156.788940,279.512299 157.003464,280.668854 157.393127,281.763428 
	C158.840164,285.828064 157.717926,287.485565 153.135132,287.482117 
	C139.314514,287.471710 139.322845,287.609894 134.918579,274.329132 
	C134.239853,272.282471 133.442764,270.275085 131.960648,267.921204 
	C129.459152,267.653320 127.697441,267.713745 125.935730,267.774200 
M124.550278,241.961517 
	C121.810104,233.521088 119.069939,225.080658 116.329773,216.640213 
	C115.842583,216.649811 115.355400,216.659393 114.868217,216.668976 
	C111.037178,228.280777 107.206139,239.892593 103.199638,252.036194 
	C111.901237,252.036194 119.451881,252.036194 127.526161,252.036194 
	C126.553253,248.689514 125.686974,245.709641 124.550278,241.961517 
z"/>
<path fill="#F8FAF7" opacity="1.000000" stroke="none" 
	d="
M167.933411,293.010223 
	C167.993973,291.933533 168.054550,290.856842 168.110916,288.924591 
	C168.045959,282.046631 167.985199,276.024261 167.924438,270.001862 
	C167.983398,262.640320 168.042374,255.278793 168.095596,246.994781 
	C168.038177,237.718460 167.986511,229.364609 167.934845,221.010742 
	C172.004562,216.004501 177.464203,218.868637 182.260742,218.865280 
	C183.664703,218.864304 185.070831,221.961044 186.839005,224.071243 
	C187.025543,223.954605 188.018768,223.507843 188.799179,222.819702 
	C203.482452,209.872330 226.525024,216.961395 232.011490,236.179962 
	C235.576233,248.666962 235.727539,261.297760 229.816193,273.206543 
	C222.669601,287.603851 206.888412,292.582825 192.537186,285.446930 
	C190.557205,284.462402 188.575089,283.482208 186.001450,282.206268 
	C186.001450,290.743500 185.891190,298.699646 186.048615,306.650421 
	C186.125656,310.541382 184.585587,312.251526 180.709976,311.829987 
	C176.692551,311.393005 172.673126,310.974365 168.414551,309.814087 
	C168.094131,303.723694 168.013779,298.366943 167.933411,293.010223 
M185.953781,245.060242 
	C185.932190,250.375519 185.574997,255.716064 185.972794,260.999756 
	C186.486023,267.816681 191.670822,273.160400 197.800156,273.978088 
	C205.843079,275.051056 211.924866,271.736084 214.397476,264.402618 
	C217.136734,256.278412 217.033920,247.996201 214.054398,239.947952 
	C211.971481,234.321625 207.968369,231.086517 201.565674,231.089218 
	C192.956757,231.092880 189.166672,234.145889 185.953781,245.060242 
z"/>
<path fill="#F8FBF8" opacity="1.000000" stroke="none" 
	d="
M244.771759,221.003540 
	C248.786728,215.916412 254.307785,218.894730 259.110718,218.697952 
	C260.317047,218.648514 261.661957,221.981247 263.236816,224.167236 
	C263.662567,223.896713 264.771484,223.282532 265.782715,222.535965 
	C282.592224,210.125732 303.585602,217.169617 309.286011,237.333435 
	C312.006561,246.956589 312.031677,256.831757 309.515381,266.488312 
	C304.305054,286.483429 285.548279,294.314026 267.336517,284.359406 
	C266.236298,283.757996 265.086670,283.246918 262.979279,282.212341 
	C262.979279,290.404724 262.985382,297.818634 262.977478,305.232513 
	C262.970459,311.827606 262.960083,311.958649 256.305298,311.778656 
	C252.634216,311.679352 248.977371,311.053192 245.114914,309.863281 
	C244.867737,279.709198 244.819748,250.356369 244.771759,221.003540 
M269.441010,233.207077 
	C268.919434,233.785339 268.397858,234.363617 267.348236,235.188934 
	C266.841827,236.001373 266.335419,236.813828 265.305481,237.998856 
	C264.634338,239.704193 263.963226,241.409546 263.535278,243.431885 
	C263.535278,243.431885 263.850922,243.186935 263.806824,243.241638 
	C263.806824,243.241638 263.867950,243.216476 263.112885,243.762146 
	C263.084045,244.071335 263.055237,244.380539 262.706635,245.349655 
	C262.502838,253.155304 260.446136,261.218292 265.947937,268.667542 
	C266.070465,268.965179 266.291931,269.129456 266.911713,269.806976 
	C274.498566,276.445343 284.039886,275.720276 289.051544,268.078308 
	C289.051544,268.078308 289.135132,268.171570 289.724274,267.751740 
	C294.388184,256.852631 294.944427,246.159744 288.052704,235.939880 
	C288.052704,235.939880 288.164673,235.886917 287.939423,235.227570 
	C282.652496,230.330032 276.032898,229.535965 269.441010,233.207077 
z"/>
<path fill="#F8FAF7" opacity="1.000000" stroke="none" 
	d="
M183.967194,131.999969 
	C182.925644,124.156799 179.125183,120.473137 171.477875,121.110306 
	C167.108307,121.474380 162.641800,122.734795 158.602325,124.479355 
	C153.537689,126.666656 151.729675,123.770882 149.651733,120.268616 
	C147.347382,116.384705 148.404266,113.798889 152.188721,111.753807 
	C163.305786,105.746231 174.989410,104.566071 186.880493,108.480247 
	C196.592728,111.677223 201.218414,119.233337 202.196304,130.081253 
	C202.372833,145.287582 202.477112,159.631973 202.581390,173.976349 
	C201.117249,175.128387 199.796219,176.613327 198.142441,177.324203 
	C196.882889,177.865601 195.193939,177.328629 193.708389,177.438507 
	C189.199509,177.772003 184.782349,178.024307 184.086578,171.497391 
	C173.154236,179.764526 162.037964,182.475510 150.294022,175.387360 
	C142.860748,170.900970 141.178864,163.415421 142.285049,155.355820 
	C143.719055,144.907700 150.744293,139.710800 161.100586,137.118256 
	C167.922104,136.823807 174.005768,136.470657 180.079468,136.596939 
	C183.705826,136.672333 184.957245,135.471481 183.967194,131.999969 
M162.317764,150.744675 
	C158.927841,153.601410 158.409592,157.231964 160.007370,161.074982 
	C161.578293,164.853394 164.750748,165.828888 168.613449,165.037186 
	C169.244476,164.907852 169.934799,165.031830 170.594315,165.082764 
	C178.951447,165.728104 185.879669,159.235046 185.387726,150.921631 
	C185.319595,149.770401 183.742416,147.784851 182.814804,147.755875 
	C176.086639,147.545685 169.176773,146.489182 162.317764,150.744675 
z"/>
<path fill="#F7FAF6" opacity="1.000000" stroke="none" 
	d="
M294.925842,128.877289 
	C297.541107,130.531006 299.881470,132.143051 302.466278,133.082550 
	C307.622528,134.956726 313.034332,136.158722 318.117706,138.194824 
	C324.685150,140.825378 329.271698,145.450745 330.032623,152.918259 
	C330.902191,161.452576 328.652283,168.796906 321.408203,173.991989 
	C310.539124,181.786804 289.762360,180.848480 279.517670,172.145020 
	C277.465698,170.401764 275.039703,168.536469 277.765381,165.601898 
	C280.367065,162.800781 281.652130,157.558258 287.324280,159.895035 
	C290.709381,161.289627 293.941742,163.496552 297.445496,164.046432 
	C301.531616,164.687714 305.944489,164.401077 309.995026,163.512192 
	C311.488586,163.184433 313.199432,160.016144 313.247040,158.104462 
	C313.287415,156.484406 311.419525,154.057510 309.788757,153.306534 
	C305.889557,151.510925 301.614166,150.545746 297.525604,149.143463 
	C294.540283,148.119553 291.460297,147.221436 288.681396,145.771210 
	C274.616302,138.431152 273.893799,119.147316 287.275757,110.537704 
	C297.040100,104.255562 314.664886,105.076859 323.782837,112.158920 
	C326.546112,114.305229 327.802460,116.629028 325.342987,119.728752 
	C323.112152,122.540329 322.007446,126.731209 316.504181,124.474480 
	C311.688080,122.499527 306.388550,121.001289 301.232391,120.753517 
	C295.985596,120.501389 294.221985,123.413277 294.925842,128.877289 
z"/>
<path fill="#F6F9F5" opacity="1.000000" stroke="none" 
	d="
M222.003632,113.006378 
	C222.286621,112.843590 222.569626,112.680801 223.244644,112.185936 
	C224.833511,110.962029 226.030365,110.070190 227.227203,109.178360 
	C227.227203,109.178352 227.141846,109.134544 227.531311,109.124008 
	C239.627884,104.576149 250.995209,105.277267 261.676941,111.912155 
	C263.334595,112.941788 264.997742,116.028145 264.676025,117.804306 
	C263.564667,123.939583 258.788208,125.953110 252.981537,123.601921 
	C247.496185,121.380852 242.010910,118.562469 235.926010,121.815987 
	C235.282349,122.144714 234.638702,122.473434 233.613770,123.286324 
	C230.955643,128.143295 233.535645,130.430725 237.087082,131.745880 
	C241.737640,133.468079 246.546829,134.781174 251.328506,136.125366 
	C257.569946,137.879944 262.888275,140.966644 266.793030,146.251862 
	C266.793030,146.251862 266.838104,146.124985 266.835388,146.451447 
	C267.182831,147.341690 267.532959,147.905487 267.883057,148.469284 
	C272.716583,168.097000 258.860291,178.968460 242.677505,179.149628 
	C233.788635,179.249130 225.443893,177.992950 218.228149,172.452942 
	C216.060196,170.788437 213.100815,168.980179 215.878113,165.647018 
	C218.461166,162.546997 220.067612,157.429718 225.890289,159.926712 
	C228.940674,161.234818 231.855484,163.080582 235.032272,163.813934 
	C238.658676,164.651077 242.643936,165.230759 246.211136,164.549622 
	C248.414093,164.128983 250.942657,161.481842 251.863541,159.235214 
	C253.124069,156.159927 250.672745,154.052612 247.160400,152.608948 
	C238.381256,149.149353 230.236160,145.945999 222.091064,142.742645 
	C222.097687,142.390823 221.940857,142.142090 221.243622,141.646545 
	C215.678207,135.749084 215.243225,129.137619 216.577118,122.130280 
	C216.762405,121.617912 216.947678,121.105537 217.362335,120.091721 
	C219.062363,117.395653 220.533005,115.201019 222.003632,113.006378 
z"/>
<path fill="#2A4B35" opacity="1.000000" stroke="none" 
	d="
M113.006882,83.993164 
	C112.101143,86.151321 110.474869,88.289116 110.413216,90.471138 
	C110.131805,100.429260 110.289688,110.399811 110.289688,120.726662 
	C98.009598,120.726662 86.123009,120.726662 73.391479,120.726662 
	C73.391479,116.451164 73.420815,112.181656 73.384567,107.912720 
	C73.330841,101.584129 73.114845,95.254433 73.197220,88.928192 
	C73.240814,85.580170 72.098625,83.972565 68.581764,84.151573 
	C64.760773,84.346039 60.926868,84.286911 56.649124,84.397491 
	C56.862347,83.670395 57.494736,82.236938 58.192719,82.204254 
	C62.341450,82.009987 66.535042,81.842094 70.654999,82.252739 
	C74.096619,82.595779 74.991989,85.363136 74.976982,88.518875 
	C74.936600,97.008133 75.137863,105.502960 74.883720,113.984802 
	C74.765587,117.927467 76.024567,119.253746 79.999367,119.115921 
	C87.813622,118.844955 95.644188,118.987350 103.467247,119.051918 
	C107.361664,119.084053 109.209908,117.617592 109.093323,113.410286 
	C108.867493,105.260086 108.827652,97.090355 109.177933,88.948822 
	C109.264114,86.945564 111.147865,85.019646 112.609406,83.281738 
	C113.013580,83.505302 113.006882,83.993164 113.006882,83.993164 
z"/>
<path fill="#11381F" opacity="1.000000" stroke="none" 
	d="
M244.408463,221.143173 
	C244.819748,250.356369 244.867737,279.709198 244.885651,309.530029 
	C244.238235,308.815247 243.086304,307.634430 243.081970,306.449432 
	C242.981842,278.933655 242.996613,251.417404 243.051056,223.901367 
	C243.052780,223.027863 243.699265,222.155624 244.408463,221.143173 
z"/>
<path fill="#163923" opacity="1.000000" stroke="none" 
	d="
M236.149796,122.076691 
	C242.010910,118.562469 247.496185,121.380852 252.981537,123.601921 
	C258.788208,125.953110 263.564667,123.939583 264.676025,117.804306 
	C264.997742,116.028145 263.334595,112.941788 261.676941,111.912155 
	C250.995209,105.277267 239.627884,104.576149 227.535339,109.171814 
	C229.767838,107.610085 232.410736,104.579109 234.999207,104.624908 
	C244.080139,104.785591 253.416962,104.085587 261.797241,109.250877 
	C265.684692,111.646980 267.722260,118.270164 265.044617,122.334808 
	C261.779663,127.290985 259.054901,127.682091 253.473389,125.911552 
	C247.951202,124.159828 242.087479,123.484741 236.149796,122.076691 
z"/>
<path fill="#11351D" opacity="1.000000" stroke="none" 
	d="
M129.581543,175.845978 
	C129.369720,162.880829 129.658798,149.772018 129.633774,136.663803 
	C129.601471,119.737572 129.318024,102.811806 129.069458,85.444031 
	C129.666107,86.312630 130.915405,87.620712 130.920654,88.933784 
	C131.032120,116.820045 131.015121,144.706894 130.957901,172.593475 
	C130.955765,173.630524 130.296082,174.666245 129.581543,175.845978 
z"/>
<path fill="#072D13" opacity="1.000000" stroke="none" 
	d="
M54.058258,87.087746 
	C54.411945,115.857033 54.433609,144.924759 54.411636,174.454041 
	C53.912640,173.589935 53.063751,172.265381 53.059998,170.938446 
	C52.984421,144.196823 52.997387,117.454887 53.038391,90.713089 
	C53.040092,89.603767 53.486828,88.495140 54.058258,87.087746 
z"/>
<path fill="#0C351A" opacity="1.000000" stroke="none" 
	d="
M202.904144,173.793304 
	C202.477112,159.631973 202.372833,145.287582 202.327026,130.478470 
	C202.923050,131.087967 203.919907,132.158661 203.928238,133.236969 
	C204.027573,146.108902 203.989731,158.981979 203.939362,171.854568 
	C203.937073,172.440720 203.474899,173.025085 202.904144,173.793304 
z"/>
<path fill="#163923" opacity="1.000000" stroke="none" 
	d="
M266.840088,145.872055 
	C262.888275,140.966644 257.569946,137.879944 251.328506,136.125366 
	C246.546829,134.781174 241.737640,133.468079 237.087082,131.745880 
	C233.535645,130.430725 230.955643,128.143295 233.530243,123.556335 
	C234.666214,127.514992 237.353729,129.961594 241.264374,131.208527 
	C246.475266,132.870056 251.762787,134.313110 256.903839,136.165222 
	C261.477203,137.812820 265.683777,140.115326 266.840088,145.872055 
z"/>
<path fill="#163923" opacity="1.000000" stroke="none" 
	d="
M222.109238,143.109314 
	C230.236160,145.945999 238.381256,149.149353 246.789612,152.590271 
	C245.535629,152.884674 243.864136,153.386078 242.527527,152.922318 
	C236.353088,150.779968 230.246323,148.432159 224.185349,145.984558 
	C223.305222,145.629135 222.803970,144.335464 222.109238,143.109314 
z"/>
<path fill="#10381F" opacity="1.000000" stroke="none" 
	d="
M73.809258,174.820953 
	C73.685020,163.008972 73.895782,151.023529 74.565811,138.918625 
	C75.018929,149.023651 75.052429,159.248459 74.968063,169.472321 
	C74.953804,171.199524 74.431709,172.922546 73.809258,174.820953 
z"/>
<path fill="#163923" opacity="1.000000" stroke="none" 
	d="
M216.225281,122.290092 
	C215.243225,129.137619 215.678207,135.749084 221.013672,141.614777 
	C220.156418,141.874969 218.443893,142.134415 218.254349,141.711426 
	C215.498611,135.561584 212.228622,129.404953 216.225281,122.290092 
z"/>
<path fill="#193A25" opacity="1.000000" stroke="none" 
	d="
M167.564026,221.119766 
	C167.986511,229.364609 168.038177,237.718460 168.002686,246.533981 
	C167.610275,245.926453 167.106430,244.870743 167.032852,243.785843 
	C166.635376,237.924637 166.241104,232.059006 166.083420,226.188507 
	C166.039307,224.546387 166.801102,222.882629 167.564026,221.119766 
z"/>
<path fill="#11351D" opacity="1.000000" stroke="none" 
	d="
M113.469482,84.045303 
	C113.006882,83.993164 113.013580,83.505302 112.996033,83.262146 
	C117.910278,83.128403 122.842064,83.237808 127.858749,83.743675 
	C123.273117,84.125908 118.602608,84.111679 113.469482,84.045303 
z"/>
<path fill="#0E3019" opacity="1.000000" stroke="none" 
	d="
M109.975922,139.996414 
	C110.069817,149.692551 110.163704,159.388672 109.890594,169.541412 
	C109.353218,169.997330 109.182838,169.996628 109.012451,169.995926 
	C109.006912,160.312515 109.001381,150.629089 109.242035,140.473419 
	C109.488220,140.001144 109.975922,139.996414 109.975922,139.996414 
z"/>
<path fill="#0E3019" opacity="1.000000" stroke="none" 
	d="
M183.699936,132.264893 
	C184.957245,135.471481 183.705826,136.672333 180.079468,136.596939 
	C174.005768,136.470657 167.922104,136.823807 161.425812,136.934799 
	C162.328629,136.262695 163.625412,135.150055 164.972015,135.086105 
	C169.721497,134.860535 174.499969,135.181732 179.240891,134.879166 
	C180.682266,134.787186 182.037811,133.350586 183.699936,132.264893 
z"/>
<path fill="#11351D" opacity="1.000000" stroke="none" 
	d="
M118.137497,178.066498 
	C121.352432,177.502518 124.687645,177.235367 128.459106,176.825226 
	C126.840118,179.377655 121.252388,180.260696 118.137497,178.066498 
z"/>
<path fill="#193A25" opacity="1.000000" stroke="none" 
	d="
M167.666687,270.326141 
	C167.985199,276.024261 168.045959,282.046631 168.017090,288.529083 
	C167.754639,282.876221 167.581787,276.763336 167.666687,270.326141 
z"/>
<path fill="#193A25" opacity="1.000000" stroke="none" 
	d="
M167.673645,293.331390 
	C168.013779,298.366943 168.094131,303.723694 168.149597,309.548096 
	C167.887756,304.561401 167.650818,299.106964 167.673645,293.331390 
z"/>
<path fill="#163923" opacity="1.000000" stroke="none" 
	d="
M221.706253,112.879738 
	C220.533005,115.201019 219.062363,117.395653 217.350586,119.815994 
	C216.761414,116.067497 218.359497,113.358337 221.706253,112.879738 
z"/>
<path fill="#11351D" opacity="1.000000" stroke="none" 
	d="
M109.007469,170.410919 
	C109.182838,169.996628 109.353218,169.997330 109.779182,169.998520 
	C110.809563,172.341141 111.584366,174.683243 112.665924,177.251984 
	C112.152672,177.569824 110.651199,177.854523 110.613998,177.723495 
	C109.969902,175.454666 109.505875,173.134705 109.007469,170.410919 
z"/>
<path fill="#163923" opacity="1.000000" stroke="none" 
	d="
M226.848511,109.141693 
	C226.030365,110.070190 224.833511,110.962029 223.328629,111.948807 
	C224.170334,111.064171 225.320084,110.084595 226.848511,109.141693 
z"/>
<path fill="#10381F" opacity="1.000000" stroke="none" 
	d="
M126.177277,268.064331 
	C127.697441,267.713745 129.459152,267.653320 131.615982,267.796265 
	C130.147003,268.117859 128.282913,268.236145 126.177277,268.064331 
z"/>
<path fill="#10381F" opacity="1.000000" stroke="none" 
	d="
M109.935043,139.612640 
	C109.975922,139.996414 109.488220,140.001144 109.244400,140.005356 
	C108.452454,139.784164 107.904343,139.558762 107.201355,139.071487 
	C107.995705,138.949371 108.944939,139.089111 109.935043,139.612640 
z"/>
<path fill="#10381F" opacity="1.000000" stroke="none" 
	d="
M104.098076,267.994415 
	C104.412598,267.669952 104.888268,267.583649 105.709671,267.629089 
	C105.456673,267.918091 104.857948,268.075317 104.098076,267.994415 
z"/>
<path fill="#163923" opacity="1.000000" stroke="none" 
	d="
M267.868530,148.112183 
	C267.532959,147.905487 267.182831,147.341690 266.768250,146.446686 
	C267.087219,146.662003 267.470612,147.208542 267.868530,148.112183 
z"/>
<path fill="#154728" opacity="1.000000" stroke="none" 
	d="
M433.076996,168.969604 
	C434.343933,168.516602 435.944763,168.405060 436.818848,167.550323 
	C440.252625,164.192551 443.104340,160.160233 446.817444,157.183197 
	C455.836670,149.951767 466.563721,151.306503 474.500824,159.712326 
	C483.698090,169.452728 483.673035,181.155502 481.588623,193.000656 
	C477.344971,217.115982 462.832611,234.423492 443.277161,247.915390 
	C436.581787,252.534744 429.705170,251.302994 423.386749,246.407959 
	C411.474518,237.179276 402.661377,225.375809 395.073669,211.768967 
	C394.548126,209.110733 394.319550,207.082840 393.539368,205.295731 
	C388.220337,193.111664 386.681732,180.534988 392.124573,168.264389 
	C397.357574,156.466797 406.182251,150.219009 419.275513,157.506500 
	C421.522888,158.757370 423.990570,159.612366 426.356506,160.650223 
	C426.356506,160.650223 426.012207,160.981079 426.101501,161.192505 
	C427.303650,165.002136 428.545776,168.482712 433.076996,168.969604 
z"/>
<path fill="#24442D" opacity="1.000000" stroke="none" 
	d="
M426.213928,160.350342 
	C423.990570,159.612366 421.522888,158.757370 419.275513,157.506500 
	C406.182251,150.219009 397.357574,156.466797 392.124573,168.264389 
	C386.681732,180.534988 388.220337,193.111664 393.539368,205.295731 
	C394.319550,207.082840 394.548126,209.110733 395.039917,211.413742 
	C387.771851,199.531754 385.139740,185.966492 388.612335,172.489853 
	C393.632538,153.006943 409.812958,145.500748 426.213928,160.350342 
z"/>
<path fill="#24442D" opacity="1.000000" stroke="none" 
	d="
M432.997162,168.635620 
	C428.545776,168.482712 427.303650,165.002136 426.268280,161.021606 
	C428.536316,163.193405 430.726807,165.747528 432.997162,168.635620 
z"/>
<path fill="#194729" opacity="1.000000" stroke="none" 
	d="
M124.685486,242.345642 
	C125.686974,245.709641 126.553253,248.689514 127.526161,252.036194 
	C119.451881,252.036194 111.901237,252.036194 103.199638,252.036194 
	C107.206139,239.892593 111.037178,228.280777 114.868217,216.668976 
	C115.355400,216.659393 115.842583,216.649811 116.329773,216.640213 
	C119.069939,225.080658 121.810104,233.521088 124.685486,242.345642 
z"/>
<path fill="#174829" opacity="1.000000" stroke="none" 
	d="
M186.013504,244.625870 
	C189.166672,234.145889 192.956757,231.092880 201.565674,231.089218 
	C207.968369,231.086517 211.971481,234.321625 214.054398,239.947952 
	C217.033920,247.996201 217.136734,256.278412 214.397476,264.402618 
	C211.924866,271.736084 205.843079,275.051056 197.800156,273.978088 
	C191.670822,273.160400 186.486023,267.816681 185.972794,260.999756 
	C185.574997,255.716064 185.932190,250.375519 186.013504,244.625870 
z"/>
<path fill="#174829" opacity="1.000000" stroke="none" 
	d="
M263.850922,243.186935 
	C263.850922,243.186935 263.535278,243.431885 263.807495,243.130493 
	C264.662811,241.094833 265.245880,239.360550 265.828979,237.626282 
	C266.335419,236.813828 266.841827,236.001373 267.949615,235.076294 
	C268.998718,234.935944 269.446442,234.908218 270.282043,234.857590 
	C274.343811,234.359894 278.023285,233.501389 281.689362,233.555450 
	C283.858765,233.587433 286.006958,235.061386 288.164673,235.886917 
	C288.164673,235.886917 288.052704,235.939880 288.062744,236.285126 
	C290.934998,243.325134 291.601654,250.357697 290.957733,257.504700 
	C290.635040,261.085999 289.760223,264.617523 289.135132,268.171570 
	C289.135132,268.171570 289.051544,268.078308 288.739990,268.113647 
	C282.165131,271.777252 275.852814,274.149902 269.057617,269.273376 
	C268.501740,268.874451 267.439331,269.181396 266.612305,269.160339 
	C266.291931,269.129456 266.070465,268.965179 265.942688,268.033447 
	C265.268219,261.759430 264.616760,256.117340 263.919891,250.480850 
	C263.680328,248.543274 263.327484,246.619705 263.026398,244.689728 
	C263.055237,244.380539 263.084045,244.071335 263.442810,243.738983 
	C263.798798,243.539520 263.824860,243.363220 263.850922,243.186935 
z"/>
<path fill="#24442D" opacity="1.000000" stroke="none" 
	d="
M289.429688,267.961670 
	C289.760223,264.617523 290.635040,261.085999 290.957733,257.504700 
	C291.601654,250.357697 290.934998,243.325134 288.097412,236.233826 
	C294.944427,246.159744 294.388184,256.852631 289.429688,267.961670 
z"/>
<path fill="#24442D" opacity="1.000000" stroke="none" 
	d="
M266.762024,269.483643 
	C267.439331,269.181396 268.501740,268.874451 269.057617,269.273376 
	C275.852814,274.149902 282.165131,271.777252 288.799805,268.132202 
	C284.039886,275.720276 274.498566,276.445343 266.762024,269.483643 
z"/>
<path fill="#30513B" opacity="1.000000" stroke="none" 
	d="
M262.866516,245.019684 
	C263.327484,246.619705 263.680328,248.543274 263.919891,250.480850 
	C264.616760,256.117340 265.268219,261.759430 265.911682,267.819702 
	C260.446136,261.218292 262.502838,253.155304 262.866516,245.019684 
z"/>
<path fill="#24442D" opacity="1.000000" stroke="none" 
	d="
M288.052063,235.557251 
	C286.006958,235.061386 283.858765,233.587433 281.689362,233.555450 
	C278.023285,233.501389 274.343811,234.359894 270.313599,234.559723 
	C269.980560,233.882782 270.003876,233.480835 270.027191,233.078873 
	C276.032898,229.535965 282.652496,230.330032 288.052063,235.557251 
z"/>
<path fill="#30513B" opacity="1.000000" stroke="none" 
	d="
M265.567230,237.812561 
	C265.245880,239.360550 264.662811,241.094833 263.685913,242.972000 
	C263.963226,241.409546 264.634338,239.704193 265.567230,237.812561 
z"/>
<path fill="#30513B" opacity="1.000000" stroke="none" 
	d="
M269.734100,233.142975 
	C270.003876,233.480835 269.980560,233.882782 269.925720,234.582611 
	C269.446442,234.908218 268.998718,234.935944 268.213623,234.952789 
	C268.397858,234.363617 268.919434,233.785339 269.734100,233.142975 
z"/>
<path fill="#30513B" opacity="1.000000" stroke="none" 
	d="
M263.828857,243.214294 
	C263.824860,243.363220 263.798798,243.539520 263.820312,243.466141 
	C263.867950,243.216476 263.806824,243.241638 263.828857,243.214294 
z"/>
<path fill="#19482A" opacity="1.000000" stroke="none" 
	d="
M162.632172,150.521103 
	C169.176773,146.489182 176.086639,147.545685 182.814804,147.755875 
	C183.742416,147.784851 185.319595,149.770401 185.387726,150.921631 
	C185.879669,159.235046 178.951447,165.728104 170.594315,165.082764 
	C169.934799,165.031830 169.244476,164.907852 168.613449,165.037186 
	C164.750748,165.828888 161.578293,164.853394 160.007370,161.074982 
	C158.409592,157.231964 158.927841,153.601410 162.632172,150.521103 
z"/>
</svg>